<svg width="34" height="34" viewBox="0 0 34 34" fill="none" xmlns="http://www.w3.org/2000/svg">
<path d="M7.08334 11.3333C9.43055 11.3333 11.3333 9.43046 11.3333 7.08325C11.3333 4.73604 9.43055 2.83325 7.08334 2.83325C4.73613 2.83325 2.83334 4.73604 2.83334 7.08325C2.83334 9.43046 4.73613 11.3333 7.08334 11.3333Z" stroke="white" stroke-width="2" stroke-linecap="round" stroke-linejoin="round"/>
<path d="M26.9167 21.25C29.2639 21.25 31.1667 19.3472 31.1667 17C31.1667 14.6528 29.2639 12.75 26.9167 12.75C24.5694 12.75 22.6667 14.6528 22.6667 17C22.6667 19.3472 24.5694 21.25 26.9167 21.25Z" stroke="white" stroke-width="2" stroke-linecap="round" stroke-linejoin="round"/>
<path d="M7.08334 31.1667C9.43055 31.1667 11.3333 29.264 11.3333 26.9167C11.3333 24.5695 9.43055 22.6667 7.08334 22.6667C4.73613 22.6667 2.83334 24.5695 2.83334 26.9167C2.83334 29.264 4.73613 31.1667 7.08334 31.1667Z" stroke="white" stroke-width="2" stroke-linecap="round" stroke-linejoin="round"/>
<path d="M22.6667 16.9999H12.75C9.63334 16.9999 7.08334 15.5833 7.08334 11.3333V22.6666" stroke="white" stroke-width="2" stroke-linecap="round" stroke-linejoin="round"/>
</svg>
