<svg width="34" height="34" viewBox="0 0 34 34" fill="none" xmlns="http://www.w3.org/2000/svg">
<path d="M24.0833 29.75H9.91665C4.24998 29.75 2.83331 28.3333 2.83331 22.6667V11.3333C2.83331 5.66667 4.24998 4.25 9.91665 4.25H24.0833C29.75 4.25 31.1666 5.66667 31.1666 11.3333V22.6667C31.1666 28.3333 29.75 29.75 24.0833 29.75Z" stroke="white" stroke-width="2" stroke-linecap="round" stroke-linejoin="round"/>
<path d="M19.8333 11.3333H26.9166" stroke="white" stroke-width="2" stroke-linecap="round" stroke-linejoin="round"/>
<path d="M21.25 17H26.9167" stroke="white" stroke-width="2" stroke-linecap="round" stroke-linejoin="round"/>
<path d="M24.0833 22.6667H26.9166" stroke="white" stroke-width="2" stroke-linecap="round" stroke-linejoin="round"/>
<path d="M12.0416 15.9941C13.4578 15.9941 14.6058 14.846 14.6058 13.4299C14.6058 12.0137 13.4578 10.8657 12.0416 10.8657C10.6255 10.8657 9.47748 12.0137 9.47748 13.4299C9.47748 14.846 10.6255 15.9941 12.0416 15.9941Z" stroke="white" stroke-width="2" stroke-linecap="round" stroke-linejoin="round"/>
<path d="M17 23.1342C16.8016 21.0801 15.1725 19.4651 13.1183 19.2809C12.41 19.2101 11.6875 19.2101 10.965 19.2809C8.91081 19.4792 7.28165 21.0801 7.08331 23.1342" stroke="white" stroke-width="2" stroke-linecap="round" stroke-linejoin="round"/>
</svg>
