<svg width="34" height="34" viewBox="0 0 34 34" fill="none" xmlns="http://www.w3.org/2000/svg">
<path d="M12.2852 20.3007C12.2852 22.1282 13.6877 23.6015 15.4302 23.6015H18.986C20.5018 23.6015 21.7343 22.3124 21.7343 20.7257C21.7343 18.9974 20.9835 18.3882 19.8643 17.9915L14.1552 16.0082C13.036 15.6115 12.2852 15.0024 12.2852 13.274C12.2852 11.6874 13.5177 10.3982 15.0335 10.3982H18.5893C20.3318 10.3982 21.7343 11.8715 21.7343 13.699" stroke="white" stroke-width="2" stroke-linecap="round" stroke-linejoin="round"/>
<path d="M17 8.5V25.5" stroke="white" stroke-width="2" stroke-linecap="round" stroke-linejoin="round"/>
<path d="M17 31.1666C24.824 31.1666 31.1666 24.824 31.1666 16.9999C31.1666 9.17588 24.824 2.83325 17 2.83325C9.17595 2.83325 2.83331 9.17588 2.83331 16.9999C2.83331 24.824 9.17595 31.1666 17 31.1666Z" stroke="white" stroke-width="2" stroke-linecap="round" stroke-linejoin="round"/>
</svg>
