<svg width="34" height="34" viewBox="0 0 34 34" fill="none" xmlns="http://www.w3.org/2000/svg">
<path d="M17 16.9999C20.912 16.9999 24.0833 13.8286 24.0833 9.91659C24.0833 6.00457 20.912 2.83325 17 2.83325C13.088 2.83325 9.91666 6.00457 9.91666 9.91659C9.91666 13.8286 13.088 16.9999 17 16.9999Z" stroke="white" stroke-width="2" stroke-linecap="round" stroke-linejoin="round"/>
<path d="M4.83084 31.1667C4.83084 25.6842 10.285 21.25 17 21.25C18.36 21.25 19.6775 21.4342 20.91 21.7742" stroke="white" stroke-width="2" stroke-linecap="round" stroke-linejoin="round"/>
<path d="M31.1667 25.4999C31.1667 26.5624 30.8692 27.5682 30.345 28.4182C30.0475 28.9282 29.665 29.3816 29.2259 29.7499C28.2342 30.6424 26.9308 31.1666 25.5 31.1666C23.4317 31.1666 21.6325 30.0616 20.655 28.4182C20.1308 27.5682 19.8333 26.5624 19.8333 25.4999C19.8333 23.7149 20.655 22.1141 21.9583 21.0799C22.9358 20.3008 24.1683 19.8333 25.5 19.8333C28.6308 19.8333 31.1667 22.3691 31.1667 25.4999Z" stroke="white" stroke-width="2" stroke-miterlimit="10" stroke-linecap="round" stroke-linejoin="round"/>
<path d="M23.29 25.4999L24.6925 26.9024L27.71 24.1116" stroke="white" stroke-width="2" stroke-linecap="round" stroke-linejoin="round"/>
</svg>
