<svg width="40" height="40" viewBox="0 0 40 40" fill="none" xmlns="http://www.w3.org/2000/svg">
<path fill-rule="evenodd" clip-rule="evenodd" d="M4.66665 19.9999C4.66665 11.5315 11.5316 4.66659 20 4.66659C28.4684 4.66659 35.3333 11.5315 35.3333 19.9999C35.3333 27.8192 29.4804 34.2714 21.9166 35.2146V23.8333L25.75 23.8333C26.8086 23.8333 27.6666 22.9752 27.6666 21.9166C27.6666 20.858 26.8086 19.9999 25.75 19.9999L21.9166 19.9999V16.1666C21.9166 15.108 22.7747 14.2499 23.8333 14.2499H24.7916C25.8502 14.2499 26.7083 13.3918 26.7083 12.3333C26.7083 11.2747 25.8502 10.4166 24.7916 10.4166H23.8333C20.6576 10.4166 18.0833 12.991 18.0833 16.1666V19.9999L14.25 19.9999C13.1914 19.9999 12.3333 20.858 12.3333 21.9166C12.3333 22.9752 13.1914 23.8333 14.25 23.8333L18.0833 23.8333V35.2146C10.5196 34.2714 4.66665 27.8192 4.66665 19.9999ZM20 39.1666C30.5853 39.1666 39.1666 30.5853 39.1666 19.9999C39.1666 9.41446 30.5853 0.833252 20 0.833252C9.41452 0.833252 0.833313 9.41446 0.833313 19.9999C0.833313 30.5853 9.41452 39.1666 20 39.1666Z" fill="#5C82EB"/>
</svg>
