<svg width="25" height="36" viewBox="0 0 25 36" fill="none" xmlns="http://www.w3.org/2000/svg">
<path fill-rule="evenodd" clip-rule="evenodd" d="M1.11872e-05 16.0321L0.000842358 32.0652L3.58745 34.0326L7.17405 36L16.087 30.8242L25 25.6484V21.5423V17.4362L17.1565 14.6847C12.8425 13.1713 9.29366 11.9526 9.27017 11.9763C9.21882 12.0279 12.0216 19.2108 12.2101 19.5107C12.2846 19.6293 13.3856 20.2162 14.7501 20.8646C16.2572 21.5811 17.1086 22.0391 17.0251 22.0889C16.9517 22.1326 14.693 23.4361 12.0058 24.9856L7.11999 27.8029L7.06802 15.1894L7.01604 2.57587L3.5336 1.2884C1.61826 0.580331 0.0395132 0.000523145 0.0251676 4.09598e-08C0.010822 -0.000627684 -0.000404627 7.21392 1.11872e-05 16.0321Z" fill="#5C82EB"/>
</svg>
