<svg width="38" height="38" viewBox="0 0 38 38" fill="none" xmlns="http://www.w3.org/2000/svg">
<path fill-rule="evenodd" clip-rule="evenodd" d="M19 6.54175C12.1195 6.54175 6.54169 12.1195 6.54169 19.0001C6.54169 25.8807 12.1195 31.4584 19 31.4584C24.8911 31.4584 29.8271 27.3696 31.125 21.8751L20.9167 21.8751C19.3289 21.8751 18.0417 20.5878 18.0417 19.0001C18.0417 17.4123 19.3289 16.1251 20.9167 16.1251L34.3334 16.1251C35.9211 16.1251 37.2084 17.4123 37.2084 19.0001C37.2084 29.0563 29.0562 37.2084 19 37.2084C8.94383 37.2084 0.791687 29.0563 0.791687 19.0001C0.791687 8.94389 8.94383 0.791748 19 0.791748C24.0092 0.791748 28.5506 2.8183 31.8398 6.08945C32.9656 7.20913 32.9706 9.02949 31.8509 10.1553C30.7312 11.2811 28.9109 11.2861 27.7851 10.1664C25.5293 7.92309 22.4287 6.54175 19 6.54175Z" fill="#5C82EB"/>
</svg>
