<svg width="36" height="36" viewBox="0 0 36 36" fill="none" xmlns="http://www.w3.org/2000/svg">
<path fill-rule="evenodd" clip-rule="evenodd" d="M25.6667 0.75C30.9593 0.75 35.25 5.04061 35.25 10.3333V25.6667C35.25 30.9593 30.9593 35.25 25.6667 35.25H10.3333C5.04061 35.25 0.75 30.9593 0.75 25.6667L0.75 10.3333C0.75 5.04061 5.04061 0.75 10.3333 0.75L25.6667 0.75ZM25.6667 4.58333L10.3333 4.58333C7.1577 4.58333 4.58333 7.1577 4.58333 10.3333V25.6667C4.58333 28.8424 7.1577 31.4167 10.3333 31.4167L25.6667 31.4167C28.8424 31.4167 31.4167 28.8424 31.4167 25.6667V10.3333C31.4167 7.1577 28.8424 4.58333 25.6667 4.58333ZM18 10.3333C22.2341 10.3333 25.6667 13.7658 25.6667 18C25.6667 22.2341 22.2341 25.6667 18 25.6667C13.7658 25.6667 10.3333 22.2341 10.3333 18C10.3333 13.7658 13.7658 10.3333 18 10.3333ZM18 14.1667C15.8828 14.1667 14.1667 15.8828 14.1667 18C14.1667 20.1171 15.8828 21.8333 18 21.8333C20.1171 21.8333 21.8333 20.1171 21.8333 18C21.8333 15.8828 20.1171 14.1667 18 14.1667ZM26.625 7.45833C27.6836 7.45833 28.5417 8.31646 28.5417 9.375C28.5417 10.4335 27.6836 11.2917 26.625 11.2917C25.5664 11.2917 24.7083 10.4335 24.7083 9.375C24.7083 8.31646 25.5664 7.45833 26.625 7.45833Z" fill="#5C82EB"/>
</svg>
