<svg width="32" height="32" viewBox="0 0 32 32" fill="none" xmlns="http://www.w3.org/2000/svg">
<path d="M25.3717 32H31.9972L32 20.2744C32 14.5181 30.7618 10.0933 24.0466 10.0933C21.4794 9.99783 19.0679 11.3246 17.771 13.546H17.6819V10.625H11.3214V31.9993H17.9469V21.4255C17.9469 18.6372 18.4749 15.9367 21.9257 15.9367C25.3275 15.9367 25.3717 19.1274 25.3717 21.606V32Z" fill="#5C82EB"/>
<path d="M0 3.85231C0.000381286 5.97949 1.7221 7.70361 3.84558 7.70323C4.8653 7.70305 5.84319 7.29708 6.56412 6.57463C7.28505 5.85218 7.68995 4.87244 7.68977 3.85092C7.68939 1.72373 5.96767 -0.000381731 3.8442 0C1.72072 0.000381963 -0.000381038 1.72512 0 3.85231Z" fill="#5C82EB"/>
<path d="M0.525903 32H7.15835V10.625H0.525903V32Z" fill="#5C82EB"/>
</svg>
