<svg width="38" height="34" viewBox="0 0 38 34" fill="none" xmlns="http://www.w3.org/2000/svg">
<path fill-rule="evenodd" clip-rule="evenodd" d="M29.1495 6.39561C28.4729 5.42146 26.6637 4.05428 23.7328 4.64299C22.0239 4.98626 21.0013 5.83349 20.3516 6.9481C19.6593 8.13535 19.3248 9.75117 19.3248 11.6322C19.3248 12.6907 18.4667 13.5488 17.4081 13.5488C12.8732 13.5488 8.55699 12.2022 4.92487 8.55747C4.68931 9.86859 4.52496 11.4265 4.60291 13.0419C4.70334 15.1234 5.20108 17.2118 6.37968 19C7.53815 20.7578 9.44629 22.368 12.6346 23.3786C13.2703 23.5801 13.7556 24.0976 13.9159 24.7448C14.0762 25.3921 13.8885 26.0763 13.4203 26.5513C12.2877 27.7001 11.1485 28.5619 9.97797 29.244C12.0111 29.4543 13.9695 29.4696 15.7857 29.3054C19.4649 28.9726 22.3961 27.9196 24.2292 26.4321C28.0867 23.3018 30.1524 18.6372 29.7672 10.8217C29.7039 9.53557 30.9425 8.15087 31.5407 7.09935C30.6381 7.26811 29.7335 7.23651 29.1495 6.39561ZM3.80469 2.55231C4.51223 2.46983 5.20714 2.78652 5.60906 3.37461C8.43688 7.51233 11.8334 9.23362 15.6021 9.62523C15.787 8.01295 16.2221 6.41991 17.0399 5.01737C18.2396 2.95954 20.1908 1.44453 22.978 0.884711C26.8293 0.111145 29.7618 1.5059 31.4634 3.21406L34.8977 2.57205C35.6314 2.43493 36.3778 2.73604 36.8109 3.34378C37.2439 3.95151 37.2849 4.75536 36.9158 5.40398L33.6201 11.1963C33.9206 19.5557 31.5976 25.3894 26.6447 29.4087C24.0174 31.5406 20.2578 32.7498 16.1311 33.1232C11.972 33.4994 7.27078 33.0444 2.59733 31.6797C1.77742 31.4403 1.21488 30.6873 1.2179 29.8332C1.22091 28.9789 1.78874 28.2299 2.61032 27.9963C4.96058 27.3279 6.7494 26.75 8.3664 25.7409C6.06935 24.5213 4.37682 22.9271 3.17892 21.1095C1.51397 18.5831 0.896594 15.7668 0.774023 13.2266C0.651472 10.6867 1.01851 8.3343 1.40509 6.63646C1.62514 5.66996 1.88216 4.69896 2.23644 3.77138C2.49375 3.10285 3.09718 2.6348 3.80469 2.55231Z" fill="#5C82EB"/>
</svg>
