<svg width="34" height="34" viewBox="0 0 34 34" fill="none" xmlns="http://www.w3.org/2000/svg">
<path d="M11.3334 31.1667H22.6667C28.3617 31.1667 29.3817 28.8858 29.6792 26.1092L30.7417 14.7758C31.1242 11.3192 30.1325 8.5 24.0834 8.5H9.91671C3.86754 8.5 2.87587 11.3192 3.25837 14.7758L4.32087 26.1092C4.61837 28.8858 5.63837 31.1667 11.3334 31.1667Z" stroke="white" stroke-width="2" stroke-miterlimit="10" stroke-linecap="round" stroke-linejoin="round"/>
<path d="M11.3334 8.50004V7.36671C11.3334 4.85921 11.3334 2.83337 15.8667 2.83337H18.1334C22.6667 2.83337 22.6667 4.85921 22.6667 7.36671V8.50004" stroke="white" stroke-width="2" stroke-miterlimit="10" stroke-linecap="round" stroke-linejoin="round"/>
<path d="M19.8333 18.4167V19.8333C19.8333 19.8475 19.8333 19.8475 19.8333 19.8617C19.8333 21.4058 19.8191 22.6667 17 22.6667C14.195 22.6667 14.1666 21.42 14.1666 19.8758V18.4167C14.1666 17 14.1666 17 15.5833 17H18.4166C19.8333 17 19.8333 17 19.8333 18.4167Z" stroke="white" stroke-width="2" stroke-miterlimit="10" stroke-linecap="round" stroke-linejoin="round"/>
<path d="M30.6709 15.5834C27.3984 17.9634 23.6584 19.38 19.8334 19.8617" stroke="white" stroke-width="2" stroke-miterlimit="10" stroke-linecap="round" stroke-linejoin="round"/>
<path d="M3.71167 15.9658C6.89917 18.1475 10.4975 19.465 14.1667 19.8758" stroke="white" stroke-width="1.5" stroke-miterlimit="10" stroke-linecap="round" stroke-linejoin="round"/>
</svg>
