<svg width="34" height="34" viewBox="0 0 34 34" fill="none" xmlns="http://www.w3.org/2000/svg">
<path d="M26.3925 10.1291C26.4492 10.9933 26.3784 11.9708 26.2084 13.0616L25.1742 19.7058C24.2959 25.245 21.7317 27.115 16.1925 26.2508L9.54836 25.2025C7.63586 24.905 6.16253 24.395 5.08586 23.63C3.0317 22.1991 2.4367 19.8475 3.00336 16.2208L4.0517 9.57662C4.93003 4.03746 7.4942 2.16746 13.0334 3.03162L19.6775 4.07996C24.1259 4.77412 26.2084 6.58746 26.3925 10.1291Z" stroke="white" stroke-width="2" stroke-linecap="round" stroke-linejoin="round"/>
<path d="M29.0416 19.0825L26.9166 25.4717C25.1458 30.7983 22.3125 32.215 16.9858 30.4442L10.5966 28.3192C7.38082 27.2567 5.59582 25.7833 5.08582 23.63C6.16248 24.395 7.63582 24.905 9.54832 25.2025L16.1925 26.2508C21.7316 27.115 24.2958 25.245 25.1741 19.7058L26.2083 13.0617C26.3783 11.9708 26.4491 10.9933 26.3925 10.1292C29.7783 11.9283 30.515 14.6483 29.0416 19.0825Z" stroke="white" stroke-width="2" stroke-linecap="round" stroke-linejoin="round"/>
<path d="M11.6733 12.7216C13.0347 12.7216 14.1383 11.618 14.1383 10.2566C14.1383 8.89524 13.0347 7.79163 11.6733 7.79163C10.3119 7.79163 9.20831 8.89524 9.20831 10.2566C9.20831 11.618 10.3119 12.7216 11.6733 12.7216Z" stroke="white" stroke-width="2" stroke-linecap="round" stroke-linejoin="round"/>
</svg>
