<svg width="34" height="34" viewBox="0 0 34 34" fill="none" xmlns="http://www.w3.org/2000/svg">
<g clip-path="url(#clip0_172_1794)">
<path d="M32.6679 17.45H26.0401C25.9448 16.6415 25.7583 15.8606 25.4906 15.118H32.7706C33.3186 15.118 33.7646 14.677 33.7706 14.129C33.8573 6.24053 27.4896 0 19.8092 0C19.257 0 18.8092 0.447733 18.8092 1V8.6348C18.0817 8.39727 17.32 8.2366 16.5332 8.16253V4.392C16.5332 3.83973 16.0855 3.392 15.5332 3.392C7.07478 3.392 0.228577 10.2367 0.228577 18.6961C0.228577 27.1541 7.07398 34 15.5332 34C18.9192 34 22.128 32.9163 24.8128 30.8661C25.2544 30.5289 25.3354 29.8969 24.9966 29.4592L22.691 26.4806C23.376 25.8503 23.9778 25.1311 24.478 24.3413L27.3564 28.0601C27.6929 28.4947 28.3172 28.5764 28.7542 28.2427C31.8319 25.8921 33.6228 22.3271 33.6679 18.4616C33.6743 17.9049 33.2244 17.45 32.6679 17.45ZM20.8092 2.04087C26.5704 2.514 31.3254 7.13527 31.7418 13.1179H24.5201C23.5982 11.6378 22.3215 10.4006 20.8092 9.52693V2.04087ZM22.7761 29.8579C20.6221 31.2625 18.1381 32 15.5332 32C8.19704 32 2.22858 26.0319 2.22858 18.696C2.22858 11.6964 7.66218 5.94193 14.5332 5.42913V8.1624C9.16591 8.66773 4.95178 13.1986 4.95178 18.6959C4.95178 24.5303 9.69838 29.2769 15.5328 29.2769C17.5735 29.2769 19.4807 28.6956 21.0987 27.6908L22.7761 29.8579ZM15.5328 27.2769C10.8012 27.2769 6.95178 23.4275 6.95178 18.6959C6.95178 13.9643 10.8012 10.1149 15.5328 10.1149C20.2644 10.1149 24.1138 13.9643 24.1138 18.6959C24.1138 23.4275 20.2644 27.2769 15.5328 27.2769ZM28.3018 26.0139L25.4641 22.3477C25.8012 21.434 26.0151 20.4614 26.0866 19.45H31.6082C31.338 21.9741 30.1717 24.2894 28.3018 26.0139Z" fill="white"/>
<path d="M16.6066 17.6959H14.4589C13.9469 17.6959 13.5303 17.2793 13.5303 16.7672C13.5303 16.2535 13.9461 15.8385 14.4587 15.8385C14.4636 15.8386 14.4684 15.8386 14.4732 15.8386H16.5299C16.8969 15.8423 17.2598 16.0071 17.526 16.2912C17.9037 16.6941 18.5365 16.7147 18.9395 16.337C19.3424 15.9593 19.363 15.3265 18.9853 14.9235C18.3165 14.2099 17.4005 13.8387 16.5327 13.8387V12.9675C16.5327 12.4153 16.085 11.9675 15.5327 11.9675C14.9805 11.9675 14.5327 12.4153 14.5327 12.9675V13.8387C12.7299 13.8387 11.5303 15.2319 11.5303 16.7673C11.5303 18.3822 12.8441 19.696 14.4589 19.696H16.6066C17.1187 19.696 17.5353 20.1126 17.5353 20.6247C17.5353 21.1183 17.1452 21.5533 16.5923 21.5533H14.3483C14.0892 21.5507 13.8139 21.4572 13.5728 21.2899C13.119 20.975 12.4959 21.0878 12.1811 21.5415C11.8663 21.9953 11.9789 22.6183 12.4327 22.9331C13.1344 23.42 13.7761 23.5533 14.5327 23.5533V24.4245C14.5327 24.9767 14.9804 25.4245 15.5327 25.4245C16.0849 25.4245 16.5327 24.9767 16.5327 24.4245V23.5533C18.3503 23.5533 19.5352 22.1465 19.5352 20.6247C19.5353 19.0097 18.2215 17.6959 16.6066 17.6959Z" fill="white"/>
</g>
<defs>
<clipPath id="clip0_172_1794">
<rect width="34" height="34" fill="white"/>
</clipPath>
</defs>
</svg>
