<svg width="202" height="52" viewBox="0 0 202 52" fill="none" xmlns="http://www.w3.org/2000/svg">
<path d="M6.56348 24.1155V35.4148H2.15552V17.4415H6.22201V19.8938H6.2841C7.4223 17.9071 8.98475 16.9138 10.9714 16.9138C13.0202 16.9138 14.6965 17.9485 16.0002 20.018C16.6625 19.1074 17.4799 18.3624 18.4525 17.7829C19.4459 17.2035 20.4496 16.9138 21.4636 16.9138C23.4503 16.9138 25.0231 17.5967 26.182 18.9625C27.3409 20.3077 27.9203 22.0874 27.9203 24.3017V35.4148H23.5124V24.1155C23.5124 23.2256 23.2123 22.4806 22.6122 21.8805C22.012 21.2596 21.267 20.9492 20.3771 20.9492C19.508 20.9492 18.763 21.2596 18.1421 21.8805C17.542 22.4806 17.2419 23.2256 17.2419 24.1155V35.4148H12.834V24.1155C12.834 23.2256 12.5339 22.4806 11.9337 21.8805C11.3336 21.2596 10.5886 20.9492 9.69871 20.9492C8.82954 20.9492 8.08453 21.2596 7.46369 21.8805C6.86355 22.4806 6.56348 23.2256 6.56348 24.1155Z" fill="white"/>
<path d="M48.1968 12.1333V16.355H36.0594V21.6321H46.0859V25.8538H36.0594V35.4148H31.6514V12.1333H48.1968Z" fill="white"/>
<path d="M62.1017 27.9337V17.4415H66.5096V35.4148H62.4431V32.8383H62.381C61.8637 33.7902 61.1187 34.5456 60.146 35.1044C59.1941 35.6631 58.0869 35.9425 56.8245 35.9425C54.7551 35.9425 53.0684 35.2389 51.7647 33.8316C50.4816 32.383 49.8401 30.5412 49.8401 28.3062V17.4415H54.248V27.9337C54.248 29.0512 54.6309 29.9928 55.3966 30.7585C56.1623 31.5242 57.0832 31.907 58.1593 31.907C59.2561 31.907 60.1874 31.5242 60.9531 30.7585C61.7188 29.9928 62.1017 29.0512 62.1017 27.9337Z" fill="white"/>
<path d="M74.6496 24.9226V35.4148H70.2417V17.4415H74.3082V20.018H74.3703C74.8876 19.066 75.6223 18.3107 76.5742 17.7519C77.5469 17.1931 78.6644 16.9138 79.9268 16.9138C81.9962 16.9138 83.6725 17.6277 84.9556 19.0557C86.2593 20.4422 86.9112 22.2737 86.9112 24.5501V35.4148H82.5033V24.9226C82.5033 23.8258 82.1204 22.8945 81.3547 22.1288C80.5683 21.3424 79.6474 20.9492 78.592 20.9492C77.5158 20.9492 76.5846 21.3424 75.7982 22.1288C75.0325 22.8945 74.6496 23.8258 74.6496 24.9226Z" fill="white"/>
<path d="M95.0512 24.9226V35.4148H90.6433V17.4415H94.7098V20.018H94.7719C95.2892 19.066 96.0239 18.3107 96.9758 17.7519C97.9485 17.1931 99.066 16.9138 100.328 16.9138C102.398 16.9138 104.074 17.6277 105.357 19.0557C106.661 20.4422 107.313 22.2737 107.313 24.5501V35.4148H102.905V24.9226C102.905 23.8258 102.522 22.8945 101.756 22.1288C100.97 21.3424 100.049 20.9492 98.9936 20.9492C97.9174 20.9492 96.9862 21.3424 96.1998 22.1288C95.4341 22.8945 95.0512 23.8258 95.0512 24.9226Z" fill="white"/>
<path d="M129.887 26.4126C129.887 26.9921 129.805 27.6646 129.639 28.4303H115.142C115.391 29.4444 115.981 30.3135 116.912 31.0379C117.884 31.7622 118.971 32.1243 120.171 32.1243C121.02 32.1243 121.806 31.9277 122.53 31.5345C123.255 31.1413 123.813 30.6343 124.207 30.0135H128.987C128.346 31.8139 127.218 33.2522 125.604 34.3283C124.01 35.4044 122.199 35.9425 120.171 35.9425C117.44 35.9425 115.132 35.0319 113.249 33.2108C111.366 31.3897 110.424 29.1236 110.424 26.4126C110.424 23.743 111.376 21.4873 113.28 19.6455C115.163 17.8243 117.481 16.9138 120.233 16.9138C122.882 16.9138 125.159 17.8347 127.063 19.6765C128.946 21.4976 129.887 23.743 129.887 26.4126ZM115.204 24.6122H125.169C124.921 23.4533 124.352 22.5013 123.462 21.7563C122.592 21.0113 121.516 20.6388 120.233 20.6388C118.95 20.6388 117.853 21.0216 116.943 21.7874C116.032 22.5324 115.453 23.474 115.204 24.6122Z" fill="white"/>
<path d="M137.4 35.4148H132.992V12.1333H137.4V35.4148Z" fill="white"/>
<path d="M144.407 34.9491C143.952 35.4251 143.393 35.6631 142.731 35.6631C142.069 35.6631 141.5 35.4251 141.024 34.9491C140.568 34.4732 140.341 33.9144 140.341 33.2729C140.341 32.6313 140.568 32.0726 141.024 31.5966C141.5 31.1206 142.069 30.8826 142.731 30.8826C143.393 30.8826 143.952 31.1206 144.407 31.5966C144.883 32.0726 145.121 32.6313 145.121 33.2729C145.121 33.9144 144.883 34.4732 144.407 34.9491Z" fill="white"/>
<path d="M150.536 0.648438H195.211L201.445 6.88174V51.5572H156.21L150.536 45.8833V0.648438Z" fill="#FD6331"/>
<path d="M175.307 30.2937C176.301 29.1969 176.797 27.9035 176.797 26.4135C176.797 24.9441 176.301 23.6611 175.307 22.5643C174.314 21.4881 173.062 20.9501 171.551 20.9501C170.041 20.9501 168.789 21.4881 167.795 22.5643C166.802 23.6611 166.305 24.9441 166.305 26.4135C166.305 27.9035 166.802 29.1969 167.795 30.2937C168.789 31.3698 170.041 31.9079 171.551 31.9079C173.062 31.9079 174.314 31.3698 175.307 30.2937ZM181.205 35.4156H176.797V32.7771H176.735C175.163 34.8879 173.166 35.9433 170.744 35.9433C168.075 35.9433 165.902 35.0431 164.225 33.2427C162.549 31.4423 161.711 29.1658 161.711 26.4135C161.711 23.6818 162.549 21.4157 164.225 19.6153C165.902 17.8148 168.075 16.9146 170.744 16.9146C173.186 16.9146 175.183 17.9597 176.735 20.0499H176.797V17.4423H181.205V35.4156Z" fill="white"/>
<path d="M184.916 35.4156V17.4423H189.324V35.4156H184.916ZM184.668 14.0277C184.668 13.3655 184.906 12.7964 185.382 12.3204C185.878 11.8444 186.458 11.6064 187.12 11.6064C187.782 11.6064 188.351 11.8444 188.827 12.3204C189.324 12.7964 189.572 13.3655 189.572 14.0277C189.572 14.7106 189.334 15.2901 188.858 15.7661C188.382 16.2213 187.803 16.449 187.12 16.449C186.437 16.449 185.858 16.2213 185.382 15.7661C184.906 15.2901 184.668 14.7106 184.668 14.0277Z" fill="white"/>
</svg>
