<svg width="176" height="45" viewBox="0 0 176 45" fill="none" xmlns="http://www.w3.org/2000/svg">
<rect width="174.374" height="44.1316" transform="translate(0.914673 0.190918)" fill="#F7F9FD"/>
<path d="M6.35033 20.5355V30.3306H2.52917V14.75H6.05433V16.8758H6.10814C7.09483 15.1536 8.44928 14.2925 10.1715 14.2925C11.9475 14.2925 13.4006 15.1895 14.5308 16.9835C15.1049 16.1941 15.8135 15.5483 16.6567 15.046C17.5178 14.5437 18.3879 14.2925 19.2669 14.2925C20.9891 14.2925 22.3525 14.8845 23.3572 16.0685C24.3618 17.2346 24.8641 18.7774 24.8641 20.697V30.3306H21.0429V20.5355C21.0429 19.7641 20.7828 19.1183 20.2626 18.598C19.7423 18.0598 19.0965 17.7907 18.3251 17.7907C17.5716 17.7907 16.9258 18.0598 16.3876 18.598C15.8673 19.1183 15.6072 19.7641 15.6072 20.5355V30.3306H11.7861V20.5355C11.7861 19.7641 11.5259 19.1183 11.0057 18.598C10.4854 18.0598 9.8396 17.7907 9.06819 17.7907C8.31473 17.7907 7.6689 18.0598 7.13071 18.598C6.61046 19.1183 6.35033 19.7641 6.35033 20.5355Z" fill="#323232"/>
<path d="M42.4413 10.1484V13.8081H31.9197V18.3828H40.6114V22.0425H31.9197V30.3306H28.0985V10.1484H42.4413Z" fill="#323232"/>
<path d="M54.4951 23.8454V14.75H58.3162V30.3306H54.7911V28.0971H54.7373C54.2888 28.9223 53.6429 29.5771 52.7998 30.0615C51.9746 30.5459 51.0148 30.7881 49.9205 30.7881C48.1265 30.7881 46.6644 30.1781 45.5342 28.9582C44.4219 27.7024 43.8658 26.1058 43.8658 24.1683V14.75H47.687V23.8454C47.687 24.8141 48.0188 25.6304 48.6826 26.2942C49.3464 26.9579 50.1447 27.2898 51.0776 27.2898C52.0284 27.2898 52.8357 26.9579 53.4994 26.2942C54.1632 25.6304 54.4951 24.8141 54.4951 23.8454Z" fill="#323232"/>
<path d="M65.3726 21.2352V30.3306H61.5515V14.75H65.0766V16.9835H65.1304C65.5789 16.1582 66.2158 15.5034 67.041 15.0191C67.8842 14.5347 68.8529 14.2925 69.9473 14.2925C71.7412 14.2925 73.1943 14.9114 74.3066 16.1493C75.4368 17.3512 76.0019 18.9389 76.0019 20.9123V30.3306H72.1807V21.2352C72.1807 20.2844 71.8489 19.4771 71.1851 18.8133C70.5034 18.1316 69.7051 17.7907 68.7901 17.7907C67.8573 17.7907 67.05 18.1316 66.3683 18.8133C65.7045 19.4771 65.3726 20.2844 65.3726 21.2352Z" fill="#323232"/>
<path d="M83.0583 21.2352V30.3306H79.2371V14.75H82.7623V16.9835H82.8161C83.2646 16.1582 83.9015 15.5034 84.7267 15.0191C85.5699 14.5347 86.5386 14.2925 87.6329 14.2925C89.4269 14.2925 90.88 14.9114 91.9923 16.1493C93.1225 17.3512 93.6876 18.9389 93.6876 20.9123V30.3306H89.8664V21.2352C89.8664 20.2844 89.5345 19.4771 88.8708 18.8133C88.189 18.1316 87.3907 17.7907 86.4758 17.7907C85.5429 17.7907 84.7357 18.1316 84.054 18.8133C83.3902 19.4771 83.0583 20.2844 83.0583 21.2352Z" fill="#323232"/>
<path d="M113.257 22.5268C113.257 23.0291 113.185 23.6122 113.042 24.2759H100.475C100.69 25.155 101.201 25.9085 102.009 26.5364C102.852 27.1642 103.794 27.4782 104.834 27.4782C105.57 27.4782 106.251 27.3078 106.879 26.9669C107.507 26.6261 107.992 26.1865 108.332 25.6483H112.477C111.92 27.2091 110.943 28.4559 109.543 29.3888C108.162 30.3216 106.592 30.7881 104.834 30.7881C102.466 30.7881 100.466 29.9987 98.8334 28.42C97.2009 26.8413 96.3846 24.8769 96.3846 22.5268C96.3846 20.2126 97.2099 18.2572 98.8603 16.6605C100.493 15.0819 102.502 14.2925 104.888 14.2925C107.184 14.2925 109.158 15.0908 110.808 16.6875C112.441 18.2662 113.257 20.2126 113.257 22.5268ZM100.529 20.9661H109.167C108.951 19.9615 108.458 19.1362 107.687 18.4904C106.933 17.8446 106 17.5217 104.888 17.5217C103.776 17.5217 102.825 17.8535 102.036 18.5173C101.246 19.1631 100.744 19.9794 100.529 20.9661Z" fill="#323232"/>
<path d="M119.77 30.3306H115.949V10.1484H119.77V30.3306Z" fill="#323232"/>
<path d="M125.844 29.927C125.449 30.3396 124.965 30.5459 124.391 30.5459C123.817 30.5459 123.323 30.3396 122.911 29.927C122.516 29.5143 122.319 29.03 122.319 28.4738C122.319 27.9177 122.516 27.4333 122.911 27.0207C123.323 26.6081 123.817 26.4018 124.391 26.4018C124.965 26.4018 125.449 26.6081 125.844 27.0207C126.256 27.4333 126.463 27.9177 126.463 28.4738C126.463 29.03 126.256 29.5143 125.844 29.927Z" fill="#323232"/>
<path d="M131.157 0.191895H169.885L175.289 5.5954V44.3235H136.075L131.157 39.405V0.191895Z" fill="#FD6331"/>
<path d="M152.631 25.8905C153.492 24.9397 153.922 23.8184 153.922 22.5268C153.922 21.2531 153.492 20.1408 152.631 19.19C151.77 18.2571 150.684 17.7907 149.375 17.7907C148.065 17.7907 146.98 18.2571 146.119 19.19C145.258 20.1408 144.827 21.2531 144.827 22.5268C144.827 23.8184 145.258 24.9397 146.119 25.8905C146.98 26.8233 148.065 27.2898 149.375 27.2898C150.684 27.2898 151.77 26.8233 152.631 25.8905ZM157.744 30.3305H153.922V28.0432H153.869C152.505 29.8731 150.774 30.788 148.675 30.788C146.361 30.788 144.477 30.0076 143.024 28.4469C141.571 26.8861 140.844 24.9127 140.844 22.5268C140.844 20.1587 141.571 18.1943 143.024 16.6336C144.477 15.0728 146.361 14.2924 148.675 14.2924C150.792 14.2924 152.523 15.1984 153.869 17.0103H153.922V14.7499H157.744V30.3305Z" fill="white"/>
<path d="M160.96 30.3305V14.7499H164.781V30.3305H160.96ZM160.745 11.7899C160.745 11.2158 160.951 10.7225 161.364 10.3098C161.794 9.89722 162.297 9.69092 162.871 9.69092C163.445 9.69092 163.938 9.89722 164.351 10.3098C164.781 10.7225 164.997 11.2158 164.997 11.7899C164.997 12.3819 164.79 12.8842 164.378 13.2968C163.965 13.6915 163.463 13.8888 162.871 13.8888C162.279 13.8888 161.777 13.6915 161.364 13.2968C160.951 12.8842 160.745 12.3819 160.745 11.7899Z" fill="white"/>
</svg>
